<?xml version="1.0" encoding="utf-8"?>
<!-- Generator: Adobe Illustrator 25.0.1, SVG Export Plug-In . SVG Version: 6.00 Build 0)  -->
<svg version="1.1" id="圖層_1" xmlns="http://www.w3.org/2000/svg" xmlns:xlink="http://www.w3.org/1999/xlink" x="0px" y="0px"
	 viewBox="0 0 25 50" style="enable-background:new 0 0 25 50;" xml:space="preserve">
<style type="text/css">
	.st0{fill:#0C32B8;}
</style>
<g>
	<g>
		<path class="st0" d="M2.8,1.9c0,3.9,0,7.8,0,11.7c0,0.6,0,1.1,0,1.7c0,0.6,1,0.6,1,0c0-3.9,0-7.8,0-11.7c0-0.6,0-1.1,0-1.7
			C3.8,1.3,2.8,1.3,2.8,1.9L2.8,1.9z"/>
	</g>
</g>
<g>
	<g>
		<path class="st0" d="M9,10.1c0,3.9,0,7.8,0,11.7c0,0.6,0,1.1,0,1.7c0,0.6,1,0.6,1,0c0-3.9,0-7.8,0-11.7c0-0.6,0-1.1,0-1.7
			C10,9.5,9,9.5,9,10.1L9,10.1z"/>
	</g>
</g>
<g>
	<g>
		<path class="st0" d="M9,26.7c0,3.9,0,7.8,0,11.7c0,0.6,0,1.1,0,1.7c0,0.6,1,0.6,1,0c0-3.9,0-7.8,0-11.7c0-0.6,0-1.1,0-1.7
			C10,26,9,26,9,26.7L9,26.7z"/>
	</g>
</g>
<g>
	<g>
		<path class="st0" d="M2.8,18.3c0,3.9,0,7.8,0,11.7c0,0.6,0,1.1,0,1.7c0,0.6,1,0.6,1,0c0-3.9,0-7.8,0-11.7c0-0.6,0-1.1,0-1.7
			C3.8,17.7,2.8,17.7,2.8,18.3L2.8,18.3z"/>
	</g>
</g>
<g>
	<g>
		<path class="st0" d="M2.8,34.8c0,3.9,0,7.8,0,11.7c0,0.6,0,1.1,0,1.7c0,0.6,1,0.6,1,0c0-3.9,0-7.8,0-11.7c0-0.6,0-1.1,0-1.7
			C3.8,34.1,2.8,34.1,2.8,34.8L2.8,34.8z"/>
	</g>
</g>
<g>
	<g>
		<path class="st0" d="M14.9,1.9c0,3.9,0,7.8,0,11.7c0,0.6,0,1.1,0,1.7c0,0.6,1,0.6,1,0c0-3.9,0-7.8,0-11.7c0-0.6,0-1.1,0-1.7
			C15.9,1.3,14.9,1.3,14.9,1.9L14.9,1.9z"/>
	</g>
</g>
<g>
	<g>
		<path class="st0" d="M20.9,10.1c0,3.9,0,7.8,0,11.7c0,0.6,0,1.1,0,1.7c0,0.6,1,0.6,1,0c0-3.9,0-7.8,0-11.7c0-0.6,0-1.1,0-1.7
			C21.9,9.5,20.9,9.5,20.9,10.1L20.9,10.1z"/>
	</g>
</g>
<g>
	<g>
		<path class="st0" d="M20.9,26.7c0,3.9,0,7.8,0,11.7c0,0.6,0,1.1,0,1.7c0,0.6,1,0.6,1,0c0-3.9,0-7.8,0-11.7c0-0.6,0-1.1,0-1.7
			C21.9,26,20.9,26,20.9,26.7L20.9,26.7z"/>
	</g>
</g>
<g>
	<g>
		<path class="st0" d="M14.9,18.3c0,3.9,0,7.8,0,11.7c0,0.6,0,1.1,0,1.7c0,0.6,1,0.6,1,0c0-3.9,0-7.8,0-11.7c0-0.6,0-1.1,0-1.7
			C15.9,17.7,14.9,17.7,14.9,18.3L14.9,18.3z"/>
	</g>
</g>
<g>
	<g>
		<path class="st0" d="M14.9,34.8c0,3.9,0,7.8,0,11.7c0,0.6,0,1.1,0,1.7c0,0.6,1,0.6,1,0c0-3.9,0-7.8,0-11.7c0-0.6,0-1.1,0-1.7
			C15.9,34.1,14.9,34.1,14.9,34.8L14.9,34.8z"/>
	</g>
</g>
</svg>
