<?xml version="1.0" encoding="utf-8"?>
<!-- Generator: Adobe Illustrator 25.0.1, SVG Export Plug-In . SVG Version: 6.00 Build 0)  -->
<svg version="1.1" xmlns="http://www.w3.org/2000/svg" xmlns:xlink="http://www.w3.org/1999/xlink" x="0px" y="0px"
	 viewBox="0 0 100 100" style="enable-background:new 0 0 100 100;" xml:space="preserve">
<style type="text/css">
	.st0{display:none;}
	.st1{display:inline;}
	.st2{fill:#F5F5F5;}
	.st3{display:inline;fill:#F5F5F5;}
</style>
<g id="Openbook" class="st0">
	<g class="st1">
		<path class="st2" d="M97.5,61.6c-0.4-5.7-3.2-9.7-8.5-12c-0.4-0.2-0.7-0.3-1.2-0.5c0.6-0.3,1-0.6,1.4-0.8c2.6-1.5,4.5-3.6,5.7-6.4
			c3.7-9.1-1.3-19-10.9-21.6c-3.3-0.9-6.6-0.9-10-1c-1,0-1.3,0.4-1.4,1.2c-1.7,9.2-3.3,18.4-5,27.6c-0.1,0.7-0.1,1.4,0.1,2.1
			c2.5,8.8,4.9,17.6,7.4,26.4c0.4,1.3,0.3,3,1.3,3.7c1,0.7,2.6,0.2,4,0.1C91,80.2,98.3,72.1,97.5,61.6z"/>
	</g>
	<circle class="st3" cx="33.9" cy="50" r="30.7"/>
</g>
<g id="iread">
	<path class="st2" d="M65.5,38.1c0.7,0,1.3-0.6,1.3-1.3c0-0.7-0.6-1.3-1.3-1.3c-0.7,0-1.3,0.6-1.3,1.3
		C64.2,37.5,64.8,38.1,65.5,38.1z M60,41.9c2,0.1,1.9,4.4,4.2-0.2c-1.5,0.1-2.4-0.6-2.7-1c0-0.1-0.1-0.2-0.1-0.3c0,0,0.1,0,0.1-0.1
		c0.6-0.6,1.5-0.9,1.5-1.7c0-1.5-1.5-2.2-2.7-2.2c-1.2,0-2.8,0.1-2.8,1.5c0,0.4,0.7,1.5,1.7,2.3c0.1,0,0.2,0.1,0.3,0.1
		c-0.1,0.1-0.3,0.2-0.4,0.3c-1.2,0.7-2.5,1.3-5.3,0.5C56.1,44.9,58.5,41.7,60,41.9z M53.2,36.3c0.7,0,1.3-0.6,1.3-1.3
		c0-0.7-0.6-1.3-1.3-1.3c-0.7,0-1.3,0.6-1.3,1.3C51.9,35.7,52.5,36.3,53.2,36.3z M79.5,51.7l0.9-5.4c0,0-0.4,0-1,0.1l0.3-1.7l-0.4,0
		c0,0-0.8,0.1-2.2,0.4C77,36.7,76.3,28.7,75,21.4c-8.1-1.4-17-2.1-26.3-2.1c-9.3,0-18.2,0.8-26.3,2.1c-1.4,8.1-2.1,17-2.1,26.3
		c0,9.3,0.8,18.2,2.1,26.3c1.6,0.3,3.2,0.5,4.8,0.7c-0.1-2.5-0.3-5.4-0.8-8.9c-7-12.6,1.4-21.2,8.5-21.6l-0.2,2.7c0.2,0,0.5,0,0.7,0
		c3.7,1.5,2.4,4.3,1.2,4.2c2,1.6,1.4,3.8-0.8,3.8c0.9,1.6-0.8,4-2.1,3.7l-0.9,10.9c0,0,16.7,3.2,23.7,11.3
		c5.9-5.2,19.5-6.4,19.5-6.4l2-12c-1.3-0.4-1.5-1.4-0.3-3.1c-1.7-0.4-2.5-2.5,0-3.7C76.2,55.3,75.7,52.3,79.5,51.7z M45.4,28.4
		c7.8-4.4,17.6-2.8,22.8,2.2c0.3,0.2,0.5,0.6,0.8,0.9c3.8-1.2,6.1,4.8,2.2,7.7c0.6,2.8-0.9,4.8-0.3,7.3c0.1,0.1,0.2,0.1,0.4,0.2
		c-2.7,1-5.7,2.4-8.3,4.4c-7.1-6-19.3-9.1-24.5-10.3c0.6-1.9,1.1-4,1.8-5.3C34.8,30.3,40.7,25.5,45.4,28.4z M36.3,42.1l0-1.2
		c1.1,0.2,5,1,9.8,2.4c5.6,1.7,12.3,4.4,16.8,8.3l0.2,0.1l0.2-0.1c3.3-2.6,7.3-4.2,10.6-5.2c2.5-0.7,4.5-1.1,5.3-1.2l-0.2,1.1
		c-3.2,0.3-10.4,1.5-15.9,5.8C53.5,45.3,40.2,42.8,36.3,42.1z M60.5,74.8l4.2-19.5c6.8-5.5,14-5.9,14-5.9S67.2,56.2,60.5,74.8z"/>
</g>
</svg>
