<?xml version="1.0" encoding="utf-8"?>
<!-- Generator: Adobe Illustrator 25.0.1, SVG Export Plug-In . SVG Version: 6.00 Build 0)  -->
<svg version="1.1" id="圖層_1" xmlns="http://www.w3.org/2000/svg" xmlns:xlink="http://www.w3.org/1999/xlink" x="0px" y="0px"
	 viewBox="0 0 100 100" style="enable-background:new 0 0 100 100;" xml:space="preserve">
<style type="text/css">
	.st0{fill:#F5F5F5;}
</style>
<g>
	<path class="st0" d="M97.5,61.6c-0.4-5.7-3.2-9.7-8.5-12c-0.4-0.2-0.7-0.3-1.2-0.5c0.6-0.3,1-0.6,1.4-0.8c2.6-1.5,4.5-3.6,5.7-6.4
		c3.7-9.1-1.3-19-10.9-21.6c-3.3-0.9-6.6-0.9-10-1c-1,0-1.3,0.4-1.4,1.2c-1.7,9.2-3.3,18.4-5,27.6c-0.1,0.7-0.1,1.4,0.1,2.1
		c2.5,8.8,4.9,17.6,7.4,26.4c0.4,1.3,0.3,3,1.3,3.7c1,0.7,2.6,0.2,4,0.1C91,80.2,98.3,72.1,97.5,61.6z"/>
</g>
<circle class="st0" cx="33.9" cy="50" r="30.7"/>
</svg>
